<?xml version="1.0" encoding="utf-8"?>
<!-- Generator: Adobe Illustrator 19.1.0, SVG Export Plug-In . SVG Version: 6.00 Build 0)  -->
<svg version="1.1" preserveAspectRatio="none" id="Layer_1" xmlns="http://www.w3.org/2000/svg" xmlns:xlink="http://www.w3.org/1999/xlink" x="0px" y="0px"
   viewBox="0 0 792.1 543"  xml:space="preserve">
<style type="text/css">
  .st0{fill:url(#SVGID_1_);}
  .st1{fill:url(#SVGID_2_);}
  .st2{fill:none;stroke:#000000;stroke-miterlimit:10;}
</style>
<rect x="354.1" y="207.4" width="84.3" height="128.8"/>
<linearGradient id="SVGID_1_" gradientUnits="userSpaceOnUse" x1="460.1963" y1="272.3177" x2="667.4808" y2="272.3177" gradientTransform="matrix(4.489659e-11 1 -1 4.489659e-11 667.4806 -123.9673)">
  <stop  offset="0" style="stop-color:#000000"/>
  <stop  offset="0.7771" style="stop-color:#FFFFFF"/>
</linearGradient>
<polygon class="st0" points="791.2,543.3 -0.9,543.3 -0.9,543.5 353.1,336.4 438.4,336.2 "/>
<linearGradient id="SVGID_2_" gradientUnits="userSpaceOnUse" x1="-5.1669" y1="151.2017" x2="201.8984" y2="151.2017" gradientTransform="matrix(-4.489659e-11 -1 1 -4.489659e-11 245.0833 202.6556)">
  <stop  offset="0" style="stop-color:#000000"/>
  <stop  offset="0.7771" style="stop-color:#FFFFFF"/>
</linearGradient>
<polygon class="st1" points="0.2,0.9 792.3,0.9 792.3,0.8 438.4,207.8 354.3,207.7 "/>
<g>
  <line class="st2" x1="792.1" y1="0" x2="792.1" y2="543"/>
  <polyline class="st2" points="792.1,543 438.1,335.9 438.1,207.1 792.1,0   "/>
  <line class="st2" x1="447.2" y1="201.7" x2="447.2" y2="341.2"/>
  <line class="st2" x1="458" y1="195.5" x2="458" y2="347.5"/>
  <line class="st2" x1="470.8" y1="187.9" x2="470.8" y2="355"/>
  <line class="st2" x1="486.5" y1="178.8" x2="486.5" y2="364.2"/>
  <line class="st2" x1="506" y1="167.4" x2="506" y2="375.6"/>
  <line class="st2" x1="531.1" y1="152.7" x2="531.1" y2="390.3"/>
  <line class="st2" x1="564.3" y1="133.3" x2="564.3" y2="409.7"/>
  <line class="st2" x1="610.5" y1="106.2" x2="610.5" y2="436.8"/>
  <line class="st2" x1="679.2" y1="66" x2="679.2" y2="477"/>
  <line class="st2" x1="792.1" y1="488.7" x2="438.1" y2="323"/>
  <line class="st2" x1="792.1" y1="434.4" x2="438.1" y2="310.1"/>
  <line class="st2" x1="792.1" y1="380.1" x2="438.1" y2="297.3"/>
  <line class="st2" x1="792.1" y1="325.8" x2="438.1" y2="284.4"/>
  <line class="st2" x1="792.1" y1="271.5" x2="438.1" y2="271.5"/>
  <line class="st2" x1="792.1" y1="217.2" x2="438.1" y2="258.6"/>
  <line class="st2" x1="792.1" y1="162.9" x2="438.1" y2="245.7"/>
  <line class="st2" x1="792.1" y1="108.6" x2="438.1" y2="232.8"/>
  <line class="st2" x1="792.1" y1="54.3" x2="438.1" y2="220"/>
</g>
<polyline class="st2" points="0,543 354.1,336.2 438.1,336.2 792.1,543 "/>
<line class="st2" x1="792.1" y1="543" x2="0" y2="543"/>
<line class="st2" x1="447.2" y1="341.6" x2="344.9" y2="341.6"/>
<line class="st2" x1="458.4" y1="347.5" x2="334.2" y2="347.5"/>
<line class="st2" x1="472" y1="356.1" x2="320.1" y2="356.1"/>
<line class="st2" x1="486.7" y1="364.6" x2="305.5" y2="364.6"/>
<line class="st2" x1="506.8" y1="375.9" x2="286.1" y2="375.9"/>
<line class="st2" x1="531.1" y1="390.5" x2="261.1" y2="390.5"/>
<line class="st2" x1="611" y1="437.2" x2="181.2" y2="437.2"/>
<line class="st2" x1="679.2" y1="477.1" x2="112.9" y2="477.1"/>
<line class="st2" x1="79.3" y1="543" x2="362.5" y2="336.2"/>
<line class="st2" x1="158.5" y1="543" x2="370.9" y2="336.2"/>
<line class="st2" x1="237.7" y1="543" x2="379.3" y2="336.2"/>
<line class="st2" x1="316.9" y1="543" x2="387.7" y2="336.2"/>
<line class="st2" x1="396.1" y1="543" x2="396.1" y2="336.2"/>
<line class="st2" x1="475.3" y1="543" x2="404.5" y2="336.2"/>
<line class="st2" x1="554.5" y1="543" x2="412.9" y2="336.2"/>
<line class="st2" x1="633.7" y1="543" x2="421.3" y2="336.2"/>
<line class="st2" x1="712.9" y1="543" x2="429.7" y2="336.2"/>
<line class="st2" x1="0" y1="0" x2="792.1" y2="0"/>
<polyline class="st2" points="438.1,206.8 354.1,206.8 0,0 "/>
<line class="st2" x1="344.9" y1="201.4" x2="447.2" y2="201.4"/>
<line class="st2" x1="333.7" y1="195.5" x2="458" y2="195.5"/>
<line class="st2" x1="320.1" y1="186.9" x2="472" y2="186.9"/>
<line class="st2" x1="305.5" y1="178.4" x2="486.7" y2="178.4"/>
<line class="st2" x1="285.3" y1="167" x2="506.1" y2="167"/>
<line class="st2" x1="261.1" y1="152.5" x2="531.1" y2="152.5"/>
<line class="st2" x1="181.2" y1="105.8" x2="611" y2="105.8"/>
<line class="st2" x1="112.9" y1="65.8" x2="679.3" y2="65.8"/>
<line class="st2" x1="712.9" y1="0" x2="429.7" y2="206.8"/>
<line class="st2" x1="633.7" y1="0" x2="421.3" y2="206.8"/>
<line class="st2" x1="554.5" y1="0" x2="412.9" y2="206.8"/>
<line class="st2" x1="475.3" y1="0" x2="404.5" y2="206.8"/>
<line class="st2" x1="396.1" y1="0" x2="396.1" y2="206.8"/>
<line class="st2" x1="316.9" y1="0" x2="387.7" y2="206.8"/>
<line class="st2" x1="237.7" y1="0" x2="379.3" y2="206.8"/>
<line class="st2" x1="158.5" y1="0" x2="370.9" y2="206.8"/>
<line class="st2" x1="79.3" y1="0" x2="362.5" y2="206.8"/>
<line class="st2" x1="0" y1="543.2" x2="0" y2="0.2"/>
<polyline class="st2" points="0,0.2 354,207.3 354,336.1 0,543.2 "/>
<line class="st2" x1="344.9" y1="341.4" x2="344.9" y2="201.9"/>
<line class="st2" x1="334.2" y1="347.7" x2="334.2" y2="195.7"/>
<line class="st2" x1="321.3" y1="355.2" x2="321.3" y2="188.1"/>
<line class="st2" x1="305.6" y1="364.4" x2="305.6" y2="179"/>
<line class="st2" x1="286.1" y1="375.8" x2="286.1" y2="167.5"/>
<line class="st2" x1="261.1" y1="390.5" x2="261.1" y2="152.9"/>
<polyline class="st2" points="564.3,409.7 227.8,409.9 227.8,133.5 564.3,133.5 "/>
<line class="st2" x1="181.6" y1="436.9" x2="181.6" y2="106.4"/>
<line class="st2" x1="112.9" y1="477.1" x2="112.9" y2="66.2"/>
<line class="st2" x1="0" y1="54.5" x2="354" y2="220.1"/>
<line class="st2" x1="0" y1="108.8" x2="354" y2="233"/>
<line class="st2" x1="0" y1="163.1" x2="354" y2="245.9"/>
<line class="st2" x1="0" y1="217.4" x2="354" y2="258.8"/>
<line class="st2" x1="0" y1="271.7" x2="354" y2="271.7"/>
<line class="st2" x1="0" y1="326" x2="354" y2="284.6"/>
<line class="st2" x1="0" y1="380.3" x2="354" y2="297.4"/>
<line class="st2" x1="0" y1="434.6" x2="354" y2="310.3"/>
<line class="st2" x1="0" y1="488.9" x2="354" y2="323.2"/>
</svg>
